PathFileType	4	(X/Y/Z)	RBDS025\RBDS025runT35.trc
DataRate	CameraRate	NumFrames	NumMarkers	Units	OrigDataRate	OrigDataStartFrame	OrigNumFrames
150.000000	150.000000	6	33	mm	150.000000	1125	4500
Frame#	Time	L.ASIS			L.Heel.Bottom			L.Heel.Lateral			L.Heel.Top			L.Iliac.Crest			L.MT1			L.MT5			L.PSIS			L.Shank.Bottom.Lateral			L.Shank.Bottom.Medial			L.Shank.Top.Lateral			L.Shank.Top.Medial			L.Thigh.Bottom.Lateral			L.Thigh.Bottom.Medial			L.Thigh.Top.Lateral			L.Thigh.Top.Medial			R.ASIS			R.ASY			R.Heel.Bottom			R.Heel.Lateral			R.Heel.Top			R.Iliac.Crest			R.MT1			R.MT5			R.PSIS			R.Shank.Bottom.Lateral			R.Shank.Bottom.Medial			R.Shank.Top.Lateral			R.Shank.Top.Medial			R.Thigh.Bottom.Lateral			R.Thigh.Bottom.Medial			R.Thigh.Top.Lateral			R.Thigh.Top.Medial			
		X1	Y1	Z1	X2	Y2	Z2	X3	Y3	Z3	X4	Y4	Z4	X5	Y5	Z5	X6	Y6	Z6	X7	Y7	Z7	X8	Y8	Z8	X9	Y9	Z9	X10	Y10	Z10	X11	Y11	Z11	X12	Y12	Z12	X13	Y13	Z13	X14	Y14	Z14	X15	Y15	Z15	X16	Y16	Z16	X17	Y17	Z17	X18	Y18	Z18	X19	Y19	Z19	X20	Y20	Z20	X21	Y21	Z21	X22	Y22	Z22	X23	Y23	Z23	X24	Y24	Z24	X25	Y25	Z25	X26	Y26	Z26	X27	Y27	Z27	X28	Y28	Z28	X29	Y29	Z29	X30	Y30	Z30	X31	Y31	Z31	X32	Y32	Z32	X33	Y33	Z33	

1126	7.500000000000001	2189.069513514636	894.8518432295691	812.9381423664591	1819.798620383475	58.38945440491846	923.7085629986707	1843.584457118097	76.91360590211968	876.9801620177567	1837.865534327846	100.0494257584594	924.4011395027287	2115.64950903067	969.8436064230131	765.854600791796	2029.261761891267	33.59786968066476	929.4549628899346	1983.388216412993	43.77540595521295	823.7745899571494	2034.975313585922	964.4060256287656	874.685038455592	1962.909907524466	171.0095645543205	851.6708874672186	1920.27091287045	202.6879004987162	869.1115974653803	2000.861967689794	237.6166731023855	826.6116098486596	1958.960432215344	268.7510837487975	841.4435476723031	2122.879612673294	546.8048518755434	772.5366693772297	2057.768517768813	538.6580137762727	804.2949503850103	2099.499565352265	652.0692150222342	754.1827741952883	2040.054428722534	645.6894422341815	789.74909043619	2207.743025844035	893.9188472829212	1013.418748572791	1902.167063078414	212.547372633977	1012.850691540626	1799.891032315766	371.2105319908	980.2518185598954	1827.701036553439	357.504860444153	1023.858496121202	1844.570577902604	375.0801874545556	980.4774392014895	2151.39595323103	954.6855572475862	1062.531446223699	1872.436263896302	169.9594874035401	971.0677209435298	1853.168359753061	208.3367792734032	1073.947804393658	2044.605949502517	957.7839161187073	976.9731393645728	1970.498978340627	361.6125284734589	1046.082270531855	1958.459227073636	399.0377869005256	1013.102504223448	2047.136499423185	396.7631736757168	1055.086766262405	2030.687772885641	434.2955901831962	1021.122196196455	2224.327843414716	544.8378483060065	1077.647512030142	2167.693137573367	520.8832786735059	1041.52981195788	2175.424325683734	642.9744865088694	1091.376078579907	2118.727633712551	618.4076717843591	1061.153446638594	
1127	7.506666666666667	2188.984405256967	898.0924650908677	812.8849048553222	1797.776092064546	65.25175180143415	923.2235825575428	1822.048511333377	82.21314614540292	876.211362060052	1816.988703205461	106.3855701982288	923.1834749781169	2117.0721805623	973.9633605020568	766.358959786581	2005.409620910718	33.76609087578256	929.3977385241178	1960.294325741095	43.88596649967955	823.4051513102239	2035.531162378986	968.7290918660312	874.8447483619582	1942.319827918936	175.6246189073863	850.2616193551573	1900.268667287028	207.6273054151938	868.3959255272447	1980.922360511245	241.980612923929	825.4744049582461	1939.406188490987	273.4803504700771	840.7591037444754	2111.285665139282	550.0232975714736	772.5492465536624	2045.696945629059	544.2689831373294	803.8678607110199	2092.023245379766	656.1148847737433	754.3665650583418	2032.109101762865	651.9399483201011	789.6401956293784	2207.947283951224	899.0754775441061	1013.224490193673	1927.816984518161	201.3377178321759	1012.615624222027	1814.308710149009	352.0446084601602	979.9444374415183	1842.857503389022	340.2416454781722	1023.614037281435	1858.496569439594	359.3476020630033	980.334463311603	2151.45643155425	960.3121938651534	1062.767175947267	1901.505517742876	156.8373811037206	970.4959062844638	1878.987454695287	193.1909921157147	1073.292006974673	2044.751079634989	962.7934201342507	977.2917227709081	1985.787438636364	354.0050379508411	1045.653484858763	1971.315029981234	390.7255413061335	1012.801314909529	2060.028931644181	393.9580154638853	1054.599029831953	2041.142875778394	430.4910571459277	1020.824246504523	2232.799883932055	553.9704384546045	1077.244554683335	2176.967406614902	528.4586613182477	1040.903814598481	2181.002165263834	650.4675876547936	1091.477047159905	2124.933198912419	624.2343403735071	1061.437537153121	
1128	7.513333333333334	2189.226720459353	901.5206976497039	813.0121538706032	1776.455446619919	73.10017729464276	922.6393865512745	1801.199411366027	88.25679888903204	875.3277560306198	1796.975939329591	113.5365967687899	921.7892651868251	2118.709950132752	978.2068034977644	766.9233528725495	1981.797508315637	34.12575391544035	929.2005624954257	1937.415006922541	44.13060778922843	822.9022605644199	2036.408831650006	973.2380636043345	875.0602191259468	1922.208729896278	180.9451044774463	848.4637428433213	1880.819906761321	213.1462602987557	867.546206132344	1961.292193257646	247.1427501029826	823.9681438707312	1920.225148093104	278.8885452561931	839.9518689590327	2099.821856779999	553.9780917997115	772.2411367003659	2033.915930234449	550.6398177191016	803.2258320190197	2084.717126677805	660.7414222457456	754.3741638965834	2024.46542710897	658.7837919447512	789.4168213914938	2208.360084215416	904.5151827730198	1013.136429804822	1954.212568937228	190.2297299221356	1012.417188268031	1829.747204138938	331.7962001199763	979.1354836924186	1858.835547470142	322.1005764175231	1022.945703386389	1873.197370795054	342.5818228612083	979.7546777657733	2152.056064731656	966.3953651967288	1063.085597252107	1931.652439225917	143.941194240056	970.0268025372965	1905.759533473009	178.1680824447067	1072.607788757369	2045.151342649056	968.091827098469	977.6877162405107	2001.155908548591	346.0370492937402	1044.982072595183	1984.234769054457	381.7838857258433	1012.148440657441	2072.562625257983	390.8927958753837	1053.879256619431	2051.239012605066	426.1285113912786	1020.186490913357	2240.38163666222	563.2501399052837	1076.742025353857	2185.296693559617	536.467349506518	1040.12187129058	2186.029129806711	658.1710248334953	1091.63667478232	2130.616016720233	630.5736310275081	1061.590407053397	
1129	7.52	2189.808148530223	905.0316493903217	813.3679145229554	1755.968712222053	81.90078630098837	921.9258929359119	1781.143631051315	95.03834014943533	874.3118130791452	1777.94708455868	121.4451247415891	920.2153519915325	2120.622917766782	982.506660946093	767.5276568093208	1958.520999545092	34.68696232766732	928.835755708047	1914.791128094147	44.54301952132033	822.2650532877931	2037.606412490392	977.8593246581947	875.2876916747294	1902.652244156343	186.9168416726971	846.2821066846873	1862.0030715173	219.1758394662795	866.5720517930951	1942.037265024012	253.0548460697592	822.1089723477728	1901.499809090365	284.911001150183	839.0598243436617	2088.505398837498	558.6201902327119	771.6212461370042	2022.43457362994	557.7046005504631	802.3779937652556	2077.586572936602	665.8989964745437	754.2125672299807	2017.127409298222	666.1576461179601	789.0894127097769	2208.933046671536	910.1566329770476	1013.214248801105	1981.367509880552	179.3532827163091	1012.232178445011	1846.403787636455	310.6488843229231	977.8893644967052	1875.821047275307	303.2347704414652	1021.894122808475	1888.860711987136	324.9183093135151	978.7639248807949	2153.092147604608	972.851793754036	1063.493005693939	1962.859690328181	131.4615468134211	969.6754206701925	1933.534114346259	163.4458376727075	1071.935407199172	2045.786655118538	973.5869359982306	978.1171773740409	2016.706778829987	337.7142712663658	1044.085603287026	1997.369559067624	372.2148005632244	1011.165122593172	2084.829517633792	387.4781833401969	1052.940602465801	2061.121964780417	421.1243242124403	1019.221575730115	2247.045397331482	572.4687050951632	1076.140104678437	2192.611903292123	544.6888894804262	1039.228661387424	2190.496425650753	665.927934851081	1091.821605283266	2135.729754463767	637.2711679333433	1061.603666018151	
1130	7.526666666666667	2190.718559182182	908.5233414431356	813.9793976085076	1736.433426212795	91.60046962798596	921.0329735203167	1761.978599468273	102.5396541552625	873.1275857667099	1760.000440442303	130.0419959368574	918.440722922584	2122.879437819119	986.8002250295514	768.1603422312296	1935.673101842506	35.46558245640649	928.27818338643	1892.472483624896	45.16894964592804	821.4926259462228	2039.104256794468	982.5157196263922	875.4879032187879	1883.723084486156	193.4720521782896	843.7321910567259	1843.880692684017	225.6377911559422	865.4700601489611	1923.227438565206	259.6529708071604	819.9246848273384	1883.303983883078	291.4716837009408	838.1092892421597	2077.338537473209	563.8967505936469	770.7220289357368	2011.248345912339	565.3934423004533	801.3617687987116	2070.619530914022	671.5352580598374	753.9031712082995	2010.086179291814	673.9954385222118	788.6911203989739	2209.617922739354	915.9069786824915	1013.504083056926	2009.280814845809	168.8407603832069	1012.028235277505	1864.449826946702	288.8079359496995	976.280432427219	1893.975582379288	283.8192108566462	1020.509220235257	1905.648986075236	306.5201291352117	977.4009035628073	2154.438022487575	979.5791405351938	1063.987132232934	1995.090657992209	119.5809026566822	969.4380936431374	1962.335612550975	149.2011932931365	1071.298736016616	2046.632303897907	979.1779406079906	978.538694586719	2032.544070570059	329.0508376800912	1042.99290062559	2010.865612238591	362.0424707832215	1009.895951173829	2096.933877263698	383.6365413435009	1051.815109692013	2070.94414041068	415.4210169879281	1017.970670290653	2252.774235798443	581.4284928904659	1075.438382962802	2198.862779148552	552.9020965201762	1038.272181952918	2194.40205256739	673.588442456594	1091.986925480681	2140.233622672189	644.1659397563458	1061.474790904919	
1131	7.533333333333334	2191.92504059573	911.9047874051607	814.8475530992499	1717.943471908796	102.1304229899317	919.8910704586292	1743.786243239701	110.732189669588	871.720515313832	1743.203369903686	139.2526589141402	916.4253118638445	2125.540974812807	991.0278577618543	768.816572548075	1913.336401171041	36.49095627563931	927.5055753321685	1870.519750760856	46.06959499354149	820.5815307046646	2040.864503407044	987.1298739985554	875.629391322261	1865.491385724663	200.5348116189656	840.8397289153718	1826.498875634036	232.4539676307157	864.2207070764581	1904.940854969288	266.8610571595106	817.4530818410574	1865.704278822639	298.4907831428426	837.1080258697089	2066.317923829417	569.7514266035613	769.5990873203851	2000.351033386283	573.6333905987817	800.2436401446747	2063.794293843145	677.5951552717415	753.480776087535	2003.329107945477	682.2281793864333	788.2772802802186	2210.370174692121	921.6638651434355	1014.031733733265	2037.933244767083	158.8296564746519	1011.763644325947	1884.022309869792	266.499494330322	974.3893310675617	1913.430296787439	264.0493079396811	1018.847963240354	1923.691325721788	287.5765963950448	975.7164502237396	2155.954346174773	986.4578043977949	1064.556803511856	2028.283484625546	108.4762659032979	969.2870280623235	1992.162178356034	135.6099457965893	1070.700417416768	2047.659219479896	984.7595258735734	978.9163668698011	2048.76720473289	320.0743932437841	1041.741680008834	2024.855871491024	351.3176180436619	1008.405096024553	2108.98695487376	379.3088654742674	1050.552144185968	2080.856225823161	408.9925189711004	1016.501507613637	2257.559778711488	589.9450361650743	1074.638366826351	2204.01612059465	560.8905526766761	1037.303530596109	2197.748148317094	681.0095778763732	1092.082950381138	2144.092060283735	651.0912118386634	1061.211610066675	
